<svg width="21" height="22" viewBox="0 0 21 22" fill="none" xmlns="http://www.w3.org/2000/svg">
<path opacity="0.4" d="M10.5 5.2283V19.2546C10.3512 19.2546 10.1938 19.2283 10.0712 19.1583L10.0363 19.1408C8.35625 18.2221 5.425 17.2596 3.52625 17.0058L3.2725 16.9708C2.4325 16.8658 1.75 16.0783 1.75 15.2383V4.6683C1.75 3.62705 2.59875 2.83955 3.64 2.92705C5.4775 3.0758 8.26 4.0033 9.8175 4.97455L10.0363 5.1058C10.1675 5.18455 10.3337 5.2283 10.5 5.2283Z" fill="#008282"/>
<path d="M19.25 4.67716V15.2384C19.25 16.0784 18.5675 16.8659 17.7275 16.9709L17.4388 17.0059C15.5312 17.2597 12.5913 18.2309 10.9113 19.1584C10.7975 19.2284 10.6575 19.2547 10.5 19.2547V5.22841C10.6662 5.22841 10.8325 5.18466 10.9637 5.10591L11.1125 5.00966C12.67 4.02966 15.4613 3.09341 17.2988 2.93591H17.3512C18.3925 2.84841 19.25 3.62716 19.25 4.67716Z" fill="#008282"/>
<path d="M6.78125 8.67578H4.8125C4.45375 8.67578 4.15625 8.37828 4.15625 8.01953C4.15625 7.66078 4.45375 7.36328 4.8125 7.36328H6.78125C7.14 7.36328 7.4375 7.66078 7.4375 8.01953C7.4375 8.37828 7.14 8.67578 6.78125 8.67578Z" fill="#008282"/>
<path d="M7.4375 11.3008H4.8125C4.45375 11.3008 4.15625 11.0033 4.15625 10.6445C4.15625 10.2858 4.45375 9.98828 4.8125 9.98828H7.4375C7.79625 9.98828 8.09375 10.2858 8.09375 10.6445C8.09375 11.0033 7.79625 11.3008 7.4375 11.3008Z" fill="#008282"/>
</svg>
