<svg width="21" height="22" viewBox="0 0 21 22" fill="none" xmlns="http://www.w3.org/2000/svg">
<path fill-rule="evenodd" clip-rule="evenodd" d="M7 1.68457C7.36244 1.68457 7.65625 1.97838 7.65625 2.34082V4.96582C7.65625 5.32826 7.36244 5.62207 7 5.62207C6.63756 5.62207 6.34375 5.32826 6.34375 4.96582V2.34082C6.34375 1.97838 6.63756 1.68457 7 1.68457Z" fill="#008282"/>
<path fill-rule="evenodd" clip-rule="evenodd" d="M14 1.68457C14.3624 1.68457 14.6562 1.97838 14.6562 2.34082V4.96582C14.6562 5.32826 14.3624 5.62207 14 5.62207C13.6376 5.62207 13.3438 5.32826 13.3438 4.96582V2.34082C13.3438 1.97838 13.6376 1.68457 14 1.68457Z" fill="#008282"/>
<path opacity="0.4" d="M18.8125 7.91457V15.5796C18.8125 15.7196 18.8037 15.8596 18.795 15.9908H2.205C2.19625 15.8596 2.1875 15.7196 2.1875 15.5796V7.91457C2.1875 5.56082 4.095 3.65332 6.44875 3.65332H14.5512C16.905 3.65332 18.8125 5.56082 18.8125 7.91457Z" fill="#008282"/>
<path d="M18.7951 15.9907C18.5851 18.152 16.7651 19.8407 14.5513 19.8407H6.44883C4.23508 19.8407 2.41508 18.152 2.20508 15.9907H18.7951Z" fill="#008282"/>
<path d="M11.8387 10.7584C12.2325 10.4871 12.4775 10.0846 12.4775 9.54211C12.4775 8.40461 11.5675 7.81836 10.5 7.81836C9.4325 7.81836 8.51375 8.40461 8.51375 9.54211C8.51375 10.0846 8.7675 10.4959 9.1525 10.7584C8.61875 11.0734 8.3125 11.5809 8.3125 12.1759C8.3125 13.2609 9.14375 13.9346 10.5 13.9346C11.8475 13.9346 12.6875 13.2609 12.6875 12.1759C12.6875 11.5809 12.3812 11.0646 11.8387 10.7584ZM10.5 8.90336C10.955 8.90336 11.2875 9.15711 11.2875 9.59461C11.2875 10.0234 10.955 10.2946 10.5 10.2946C10.045 10.2946 9.7125 10.0234 9.7125 9.59461C9.7125 9.15711 10.045 8.90336 10.5 8.90336ZM10.5 12.8409C9.9225 12.8409 9.5025 12.5521 9.5025 12.0271C9.5025 11.5021 9.9225 11.2221 10.5 11.2221C11.0775 11.2221 11.4975 11.5109 11.4975 12.0271C11.4975 12.5521 11.0775 12.8409 10.5 12.8409Z" fill="#008282"/>
</svg>
