<svg width="17" height="17" viewBox="0 0 17 17" fill="none" xmlns="http://www.w3.org/2000/svg">
<path opacity="0.4" d="M14.9303 6.63257V11.5914C14.9303 13.1137 13.6939 14.3434 12.1717 14.3434H4.39437C2.87214 14.3434 1.63574 13.1137 1.63574 11.5914V6.63257H14.9303Z" fill="#008282"/>
<path d="M14.9303 5.66067V6.63117H1.63574V5.66067C1.63574 4.13844 2.87214 2.90869 4.39437 2.90869H12.1717C13.6939 2.90869 14.9303 4.13844 14.9303 5.66067ZM5.62411 12.1165H4.29466C4.02212 12.1165 3.79611 11.8905 3.79611 11.618C3.79611 11.3454 4.02212 11.1194 4.29466 11.1194H5.62411C5.89665 11.1194 6.12266 11.3454 6.12266 11.618C6.12266 11.8905 5.89665 12.1165 5.62411 12.1165ZM9.94485 12.1165H7.28594C7.0134 12.1165 6.78739 11.8905 6.78739 11.618C6.78739 11.3454 7.0134 11.1194 7.28594 11.1194H9.94485C10.2174 11.1194 10.4434 11.3454 10.4434 11.618C10.4434 11.8905 10.2174 12.1165 9.94485 12.1165Z" fill="#008282"/>
</svg>
