<svg width="21" height="22" viewBox="0 0 21 22" fill="none" xmlns="http://www.w3.org/2000/svg">
<path opacity="0.4" d="M10.5 19.8408C15.3325 19.8408 19.25 15.9233 19.25 11.0908C19.25 6.25833 15.3325 2.34082 10.5 2.34082C5.66751 2.34082 1.75 6.25833 1.75 11.0908C1.75 15.9233 5.66751 19.8408 10.5 19.8408Z" fill="#008282"/>
<path d="M13.7463 14.5296C13.6326 14.5296 13.5188 14.5034 13.4138 14.4334L10.7013 12.8146C10.0276 12.4121 9.52881 11.5284 9.52881 10.7496V7.16211C9.52881 6.80336 9.82631 6.50586 10.1851 6.50586C10.5438 6.50586 10.8413 6.80336 10.8413 7.16211V10.7496C10.8413 11.0646 11.1038 11.5284 11.3751 11.6859L14.0876 13.3046C14.4026 13.4884 14.4988 13.8909 14.3151 14.2059C14.1838 14.4159 13.9651 14.5296 13.7463 14.5296Z" fill="#008282"/>
</svg>
