<svg width="167" height="168" viewBox="0 0 167 168" fill="none" xmlns="http://www.w3.org/2000/svg">
<rect y="0.490723" width="166.914" height="166.914" rx="83.4572" fill="#DFF5F4"/>
<rect x="42.187" y="42.6777" width="82.5401" height="82.5401" rx="41.2701" fill="#00CD99"/>
<rect x="11.4639" y="11.8022" width="143.987" height="144.904" rx="71.9933" fill="#9DFFE6"/>
<rect x="23.8447" y="25.1003" width="119.225" height="118.307" rx="59.1537" fill="#22FFC7"/>
<rect x="42.187" y="42.6777" width="82.5401" height="82.5401" rx="41.2701" fill="#00CD99"/>
<g clip-path="url(#clip0_904_5328)">
<path d="M100.894 72.4994C100.645 72.2511 100.35 72.0542 100.026 71.9199C99.7012 71.7856 99.3534 71.7165 99.0021 71.7167C98.6509 71.7169 98.3031 71.7863 97.9787 71.9209C97.6542 72.0555 97.3595 72.2527 97.1113 72.5012L77.647 91.9833L71.9023 83.8526C71.6996 83.5658 71.4424 83.3216 71.1453 83.1342C70.8483 82.9467 70.5173 82.8196 70.1711 82.76C69.472 82.6398 68.7538 82.8022 68.1744 83.2116C67.5951 83.6209 67.2021 84.2436 67.0818 84.9427C66.9616 85.6418 67.124 86.3601 67.5334 86.9394L75.0763 97.6145C75.0763 97.6145 75.2965 97.9038 75.404 98.0114C75.6524 98.2599 75.9474 98.4569 76.272 98.5913C76.5967 98.7257 76.9446 98.7948 77.296 98.7946C77.6473 98.7945 77.9952 98.7251 78.3197 98.5904C78.6442 98.4557 78.939 98.2584 79.1873 98.0098L100.896 76.2818C101.144 76.0334 101.341 75.7385 101.475 75.4139C101.609 75.0893 101.678 74.7415 101.678 74.3902C101.678 74.039 101.609 73.6912 101.474 73.3668C101.339 73.0423 101.142 72.7476 100.894 72.4994Z" fill="white"/>
</g>
<defs>
<clipPath id="clip0_904_5328">
<rect width="32.0989" height="32.0989" fill="white" transform="translate(71.0952 64.9121) rotate(12)"/>
</clipPath>
</defs>
</svg>
