<svg width="25" height="24" viewBox="0 0 25 24" fill="none" xmlns="http://www.w3.org/2000/svg">
<path d="M12.531 17.595C15.774 17.595 18.4087 15.1077 18.5209 12C18.4087 8.8924 15.774 6.40503 12.531 6.40503C9.28836 6.40503 6.65286 8.8924 6.54224 12C6.65249 15.1077 9.28799 17.595 12.531 17.595Z" fill="#008282"/>
<path d="M12.5311 3.75C7.97489 3.75 4.28076 7.44375 4.28076 12C4.28076 16.5559 7.97526 20.25 12.5311 20.25C17.087 20.25 20.7811 16.5559 20.7811 12C20.7811 7.44375 17.087 3.75 12.5311 3.75ZM12.5308 18C9.21689 18 6.53039 15.4046 6.53039 12.2021C6.53039 12.1339 6.53976 12.0675 6.54201 12C6.53976 11.9325 6.53039 11.8658 6.53039 11.7979C6.53039 8.59538 9.21726 6 12.5308 6C15.8446 6 18.5308 8.59538 18.5308 11.7979C18.5308 11.8658 18.5229 11.9325 18.521 12C18.5233 12.0675 18.5308 12.1339 18.5308 12.2021C18.5304 15.4046 15.8446 18 12.5308 18Z" fill="#008282"/>
<path d="M1.55529 2.78291C1.64529 2.43003 1.82342 2.77878 1.82342 2.77878C1.82342 2.77878 1.88567 6.43129 2.29067 6.47104C2.69567 6.51079 2.38367 2.71278 2.86292 2.64003C3.30842 2.56916 3.05417 6.53141 3.45992 6.49128C3.86417 6.44853 3.93242 2.79754 3.93242 2.79754C3.93242 2.79754 4.11242 2.44916 4.20129 2.79941C5.29929 7.11566 4.41092 8.88004 4.41092 8.88004C4.41092 8.88004 4.26092 9.25091 3.90467 9.25278C3.87129 9.25091 3.89642 19.5038 3.89417 20.8823C3.89492 21.5524 1.83167 21.5318 1.83279 20.8647C1.83429 19.4862 1.87442 9.23441 1.84217 9.23516C1.48479 9.23516 1.33517 8.86466 1.33517 8.86466C1.33517 8.86466 0.450166 7.10141 1.55529 2.78291ZM21.1074 2.62503C21.5717 2.62391 23.4977 4.01253 23.4999 9.17329C23.5022 10.8237 22.6018 10.8233 22.6033 11.8557C22.6048 12.8862 22.6104 21.0829 22.6104 21.0829C22.6104 21.0829 21.6227 21.7605 20.8884 21.0514L20.8749 2.77166C20.8757 2.77203 20.873 2.62466 21.1074 2.62503Z" fill="#008282"/>
</svg>
