<svg width="25" height="25" viewBox="0 0 25 25" fill="none" xmlns="http://www.w3.org/2000/svg">
<path opacity="0.4" d="M21.48 3.31112C20.61 2.44112 19.38 2.10112 18.19 2.40112L8.38998 4.85112C6.73998 5.26112 5.46998 6.54112 5.05998 8.18112L2.60998 17.9911C2.30998 19.1811 2.64998 20.4111 3.51998 21.2811C4.17998 21.9311 5.04998 22.2911 5.94998 22.2911C6.22998 22.2911 6.51998 22.2611 6.79998 22.1811L16.61 19.7311C18.25 19.3211 19.53 18.0511 19.94 16.4011L22.39 6.59112C22.69 5.40112 22.35 4.17112 21.48 3.31112Z" fill="#E5F3F3"/>
<path d="M12.5 16.1711C14.6429 16.1711 16.38 14.434 16.38 12.2911C16.38 10.1483 14.6429 8.41113 12.5 8.41113C10.3571 8.41113 8.62 10.1483 8.62 12.2911C8.62 14.434 10.3571 16.1711 12.5 16.1711Z" fill="#E5F3F3"/>
</svg>
