<svg width="21" height="22" viewBox="0 0 21 22" fill="none" xmlns="http://www.w3.org/2000/svg">
<g clip-path="url(#clip0_904_5480)">
<path d="M21 11.0001C21 5.20111 16.299 0.500105 10.5 0.500105C4.70101 0.500105 0 5.20111 0 11.0001C0 16.241 3.8397 20.5848 8.85938 21.3726V14.0353H6.19336V11.0001H8.85938V8.68683C8.85938 6.05526 10.427 4.60167 12.8254 4.60167C13.9742 4.60167 15.1758 4.80675 15.1758 4.80675V7.39073H13.8518C12.5474 7.39073 12.1406 8.20012 12.1406 9.03048V11.0001H15.0527L14.5872 14.0353H12.1406V21.3726C17.1603 20.5848 21 16.241 21 11.0001Z" fill="#1877F2"/>
<path d="M14.5872 14.0352L15.0527 11H12.1406V9.03037C12.1406 8.20001 12.5474 7.39063 13.8518 7.39063H15.1758V4.80664C15.1758 4.80664 13.9742 4.60157 12.8254 4.60157C10.4269 4.60157 8.85937 6.05516 8.85937 8.68672V11H6.19336V14.0352H8.85937V21.3724C9.39395 21.4563 9.94186 21.5 10.5 21.5C11.0581 21.5 11.606 21.4563 12.1406 21.3724V14.0352H14.5872Z" fill="white"/>
</g>
<defs>
<clipPath id="clip0_904_5480">
<rect width="21" height="21" fill="white" transform="translate(0 0.5)"/>
</clipPath>
</defs>
</svg>
