<svg width="33" height="32" viewBox="0 0 33 32" fill="none" xmlns="http://www.w3.org/2000/svg">
<path d="M29.8333 18.5332V21.5866C29.8333 26.4399 26.94 29.3332 22.0867 29.3332H10.9133C7.51333 29.3332 5.06 27.9066 3.91333 25.3733L4.06 25.2666L10.62 20.8666C11.6867 20.1466 13.1933 20.2266 14.14 21.0532L14.5933 21.4266C15.6333 22.3199 17.3133 22.3199 18.3533 21.4266L23.9 16.6666C24.94 15.7732 26.62 15.7732 27.66 16.6666L29.8333 18.5332Z" fill="white"/>
<path opacity="0.4" d="M28.4601 10.6667H24.5401C22.8468 10.6667 21.8334 9.65341 21.8334 7.96008V4.04008C21.8334 3.50675 21.9401 3.05341 22.1267 2.66675C22.1134 2.66675 22.1001 2.66675 22.0868 2.66675H10.9134C6.06008 2.66675 3.16675 5.56008 3.16675 10.4134V21.5868C3.16675 23.0401 3.42008 24.3067 3.91341 25.3734L4.06008 25.2668L10.6201 20.8667C11.6867 20.1467 13.1934 20.2267 14.1401 21.0534L14.5934 21.4267C15.6334 22.3201 17.3134 22.3201 18.3534 21.4267L23.9001 16.6667C24.9401 15.7734 26.6201 15.7734 27.6601 16.6667L29.8334 18.5334V10.4134C29.8334 10.4001 29.8334 10.3867 29.8334 10.3734C29.4467 10.5601 28.9934 10.6667 28.4601 10.6667Z" fill="white"/>
<path d="M12.5 13.8401C14.2526 13.8401 15.6733 12.4193 15.6733 10.6667C15.6733 8.91416 14.2526 7.49341 12.5 7.49341C10.7474 7.49341 9.32666 8.91416 9.32666 10.6667C9.32666 12.4193 10.7474 13.8401 12.5 13.8401Z" fill="white"/>
<path d="M28.4599 10.6666H24.5399C22.8466 10.6666 21.8333 9.65325 21.8333 7.95992V4.03992C21.8333 2.34659 22.8466 1.33325 24.5399 1.33325H28.4599C30.1532 1.33325 31.1666 2.34659 31.1666 4.03992V7.95992C31.1666 9.65325 30.1532 10.6666 28.4599 10.6666ZM28.7533 6.25325C28.5933 6.09325 28.3799 6.01325 28.1666 6.01325C27.9533 6.01325 27.7399 6.09325 27.5799 6.25325L27.3399 6.49325V3.50659C27.3399 3.03992 26.9666 2.66659 26.4999 2.66659C26.0333 2.66659 25.6599 3.03992 25.6599 3.50659V6.49325L25.4199 6.25325C25.0999 5.93325 24.5666 5.93325 24.2466 6.25325C23.9266 6.57325 23.9266 7.10659 24.2466 7.42659L25.9133 9.09325C25.9799 9.15992 26.0733 9.21325 26.1666 9.25325C26.1933 9.26659 26.2199 9.26659 26.2466 9.27992C26.3133 9.30659 26.3799 9.31992 26.4599 9.31992C26.4866 9.31992 26.5133 9.31992 26.5399 9.31992C26.6333 9.31992 26.7133 9.30659 26.8066 9.26659C26.8199 9.26659 26.8199 9.26659 26.8333 9.26659C26.9266 9.22659 27.0066 9.17325 27.0733 9.10659C27.0866 9.09325 27.0866 9.09325 27.0999 9.09325L28.7666 7.42659C29.0866 7.10659 29.0866 6.57325 28.7533 6.25325Z" fill="white"/>
</svg>
