<svg width="25" height="25" viewBox="0 0 25 25" fill="none" xmlns="http://www.w3.org/2000/svg">
<path opacity="0.4" d="M20.72 10.291V18.291C20.72 21.291 19.72 22.291 16.72 22.291H8.71997C5.71997 22.291 4.71997 21.291 4.71997 18.291V10.291H20.72Z" fill="#E5F3F3"/>
<path d="M22.25 7.29102V8.29102C22.25 9.39102 21.72 10.291 20.25 10.291H5.25C3.72 10.291 3.25 9.39102 3.25 8.29102V7.29102C3.25 6.19102 3.72 5.29102 5.25 5.29102H20.25C21.72 5.29102 22.25 6.19102 22.25 7.29102Z" fill="#E5F3F3"/>
<path opacity="0.4" d="M12.39 5.29096H6.87003C6.53003 4.92096 6.54003 4.35096 6.90003 3.99096L8.32003 2.57096C8.69003 2.20096 9.30003 2.20096 9.67003 2.57096L12.39 5.29096Z" fill="#E5F3F3"/>
<path opacity="0.4" d="M18.62 5.29096H13.1L15.82 2.57096C16.19 2.20096 16.8 2.20096 17.17 2.57096L18.59 3.99096C18.95 4.35096 18.96 4.92096 18.62 5.29096Z" fill="#E5F3F3"/>
<path opacity="0.6" d="M9.68994 10.291V15.431C9.68994 16.231 10.5699 16.701 11.2399 16.271L12.1799 15.651C12.5199 15.431 12.9499 15.431 13.2799 15.651L14.1699 16.251C14.8299 16.691 15.7199 16.221 15.7199 15.421V10.291H9.68994Z" fill="#E5F3F3"/>
</svg>
