<svg width="17" height="17" viewBox="0 0 17 17" fill="none" xmlns="http://www.w3.org/2000/svg">
<path opacity="0.4" d="M2.134 13.2486C1.86146 13.2486 1.63545 13.0226 1.63545 12.7501V8.96111C1.60222 7.15969 2.27359 5.45799 3.52328 4.18171C4.77297 2.91208 6.44809 2.21411 8.24951 2.21411C11.9321 2.21411 14.93 5.21204 14.93 8.89464V12.6836C14.93 12.9561 14.704 13.1821 14.4315 13.1821C14.1589 13.1821 13.9329 12.9561 13.9329 12.6836V8.89464C13.9329 5.76376 11.387 3.2112 8.24951 3.2112C6.71398 3.2112 5.29146 3.80281 4.23454 4.87967C3.17098 5.96318 2.60596 7.40564 2.63255 8.94781V12.7434C2.63255 13.0226 2.41319 13.2486 2.134 13.2486Z" fill="#008282"/>
<path d="M4.25477 9.1272H4.16836C2.77243 9.1272 1.63574 10.2639 1.63574 11.6598V12.9095C1.63574 14.3054 2.77243 15.4421 4.16836 15.4421H4.25477C5.6507 15.4421 6.78739 14.3054 6.78739 12.9095V11.6598C6.78739 10.2639 5.6507 9.1272 4.25477 9.1272ZM12.3977 9.1272H12.3113C10.9154 9.1272 9.77867 10.2639 9.77867 11.6598V12.9095C9.77867 14.3054 10.9154 15.4421 12.3113 15.4421H12.3977C13.7936 15.4421 14.9303 14.3054 14.9303 12.9095V11.6598C14.9303 10.2639 13.7936 9.1272 12.3977 9.1272Z" fill="#008282"/>
</svg>
