<svg width="25" height="25" viewBox="0 0 25 25" fill="none" xmlns="http://www.w3.org/2000/svg">
<path d="M22.25 8.98111C22.25 10.1711 22.06 11.2711 21.73 12.2911H2.77C2.44 11.2711 2.25 10.1711 2.25 8.98111C2.25 5.89111 4.74 3.39111 7.81 3.39111C9.62 3.39111 11.24 4.27111 12.25 5.62111C13.26 4.27111 14.88 3.39111 16.69 3.39111C19.76 3.39111 22.25 5.89111 22.25 8.98111Z" fill="#E5F3F3"/>
<path opacity="0.4" d="M21.73 12.291C20.15 17.291 15.28 20.281 12.87 21.101C12.53 21.221 11.97 21.221 11.63 21.101C9.22002 20.281 4.35002 17.291 2.77002 12.291H21.73Z" fill="#E5F3F3"/>
</svg>
