<svg width="24" height="25" viewBox="0 0 24 25" fill="none" xmlns="http://www.w3.org/2000/svg">
<path opacity="0.4" d="M10.07 3.11112L3.14002 8.66111C2.36002 9.28111 1.86002 10.5911 2.03002 11.5711L3.36002 19.5311C3.60002 20.9511 4.96002 22.1011 6.40002 22.1011H17.6C19.03 22.1011 20.4 20.9411 20.64 19.5311L21.97 11.5711C22.13 10.5911 21.63 9.28111 20.86 8.66111L13.93 3.1211C12.86 2.2611 11.13 2.26112 10.07 3.11112Z" fill="#008282"/>
<path d="M12 15.791C13.3807 15.791 14.5 14.6717 14.5 13.291C14.5 11.9103 13.3807 10.791 12 10.791C10.6193 10.791 9.5 11.9103 9.5 13.291C9.5 14.6717 10.6193 15.791 12 15.791Z" fill="#008282"/>
</svg>
