<svg width="21" height="22" viewBox="0 0 21 22" fill="none" xmlns="http://www.w3.org/2000/svg">
<path d="M19.25 20.4971H1.75C1.39125 20.4971 1.09375 20.1996 1.09375 19.8408C1.09375 19.4821 1.39125 19.1846 1.75 19.1846H19.25C19.6087 19.1846 19.9062 19.4821 19.9062 19.8408C19.9062 20.1996 19.6087 20.4971 19.25 20.4971Z" fill="#008282"/>
<path opacity="0.4" d="M18.3748 9.32341V19.8409H2.58105L2.6248 9.31465C2.6248 8.7809 2.8698 8.27345 3.29855 7.94095L9.42355 3.18095C10.0536 2.6822 10.9461 2.6822 11.5761 3.18095L12.7486 4.09093L16.6248 7.10093L17.7011 7.94095C18.1298 8.27345 18.3748 8.78091 18.3748 9.32341Z" fill="#008282"/>
<path d="M11.375 15.4658H9.625C8.89875 15.4658 8.3125 16.0521 8.3125 16.7783V19.8408H12.6875V16.7783C12.6875 16.0521 12.1012 15.4658 11.375 15.4658Z" fill="#008282"/>
<path d="M8.3125 12.6221H6.5625C6.08125 12.6221 5.6875 12.2283 5.6875 11.7471V10.4346C5.6875 9.95332 6.08125 9.55957 6.5625 9.55957H8.3125C8.79375 9.55957 9.1875 9.95332 9.1875 10.4346V11.7471C9.1875 12.2283 8.79375 12.6221 8.3125 12.6221Z" fill="#008282"/>
<path d="M14.4375 12.6221H12.6875C12.2062 12.6221 11.8125 12.2283 11.8125 11.7471V10.4346C11.8125 9.95332 12.2062 9.55957 12.6875 9.55957H14.4375C14.9188 9.55957 15.3125 9.95332 15.3125 10.4346V11.7471C15.3125 12.2283 14.9188 12.6221 14.4375 12.6221Z" fill="#008282"/>
<path d="M16.6248 7.10082L12.7485 4.09082H15.7323C16.2135 4.09082 16.6073 4.47581 16.6073 4.95706L16.6248 7.10082Z" fill="#008282"/>
</svg>
