<svg width="21" height="22" viewBox="0 0 21 22" fill="none" xmlns="http://www.w3.org/2000/svg">
<path opacity="0.4" d="M18.0425 7.98481C17.1237 3.94231 13.5975 2.12231 10.5 2.12231C10.5 2.12231 10.5 2.12231 10.4912 2.12231C7.40246 2.12231 3.86746 3.93356 2.94871 7.97606C1.92496 12.4911 4.68996 16.3148 7.19246 18.7211C8.11996 19.6136 9.30996 20.0598 10.5 20.0598C11.69 20.0598 12.88 19.6136 13.7987 18.7211C16.3012 16.3148 19.0662 12.4998 18.0425 7.98481Z" fill="#008282"/>
<path d="M10.4999 12.3685C12.0221 12.3685 13.2562 11.1344 13.2562 9.61221C13.2562 8.08997 12.0221 6.85596 10.4999 6.85596C8.97767 6.85596 7.74365 8.08997 7.74365 9.61221C7.74365 11.1344 8.97767 12.3685 10.4999 12.3685Z" fill="#008282"/>
</svg>
