<svg width="17" height="16" viewBox="0 0 17 16" fill="none" xmlns="http://www.w3.org/2000/svg">
<g clip-path="url(#clip0_936_3839)">
<path d="M12.7697 5.37071V6.76664C12.4773 6.72675 12.1449 6.70681 11.7726 6.70017V5.37071C11.7726 3.27681 11.181 1.88088 8.28282 1.88088C5.3846 1.88088 4.79299 3.27681 4.79299 5.37071V6.70017C4.42074 6.70681 4.08838 6.72675 3.7959 6.76664V5.37071C3.7959 3.44299 4.26121 0.883789 8.28282 0.883789C12.3044 0.883789 12.7697 3.44299 12.7697 5.37071Z" fill="#008282"/>
<path opacity="0.4" d="M14.9303 10.0238V11.3533C14.9303 14.0122 14.2656 14.6769 11.6067 14.6769H4.95939C2.30047 14.6769 1.63574 14.0122 1.63574 11.3533V10.0238C1.63574 7.80365 2.10105 6.97273 3.79611 6.76667C4.08859 6.72678 4.42096 6.70684 4.7932 6.7002H11.7729C12.1451 6.70684 12.4775 6.72678 12.7699 6.76667C14.465 6.97273 14.9303 7.80365 14.9303 10.0238Z" fill="#008282"/>
<path d="M5.6242 11.3526C5.53779 11.3526 5.45137 11.3327 5.3716 11.2995C5.28519 11.2662 5.21872 11.2197 5.15224 11.1599C5.03259 11.0336 4.95947 10.8607 4.95947 10.6879C4.95947 10.6015 4.97941 10.5151 5.01265 10.4353C5.04589 10.3556 5.09242 10.2824 5.15224 10.216C5.21872 10.1561 5.28519 10.1096 5.3716 10.0764C5.61755 9.97001 5.91003 10.0298 6.09616 10.216C6.15598 10.2824 6.20252 10.3556 6.23575 10.4353C6.26899 10.5151 6.28893 10.6015 6.28893 10.6879C6.28893 10.8607 6.21581 11.0336 6.09616 11.1599C5.96986 11.2795 5.79703 11.3526 5.6242 11.3526ZM8.28312 11.3533C8.10364 11.3533 7.93746 11.2802 7.81116 11.1605C7.75133 11.0941 7.7048 11.0209 7.67157 10.9412C7.63742 10.8613 7.61935 10.7755 7.61839 10.6886C7.61839 10.5091 7.69151 10.3429 7.81116 10.2166C8.05711 9.97067 8.50248 9.97067 8.75507 10.2166C8.87472 10.3429 8.94784 10.5091 8.94784 10.6886C8.94784 10.775 8.9279 10.8614 8.89467 10.9412C8.86143 11.0209 8.8149 11.0941 8.75507 11.1605C8.62878 11.2802 8.45595 11.3533 8.28312 11.3533ZM10.942 11.3533C10.7692 11.3533 10.5964 11.2802 10.4701 11.1605C10.3504 11.0342 10.2773 10.8681 10.2773 10.6886C10.2773 10.5091 10.3504 10.3429 10.4701 10.2166C10.7227 9.97067 11.168 9.97067 11.414 10.2166C11.4406 10.2499 11.4672 10.2831 11.4938 10.323C11.5203 10.3562 11.5403 10.3961 11.5536 10.436C11.5735 10.4759 11.5868 10.5158 11.5935 10.5556C11.6001 10.6022 11.6068 10.6487 11.6068 10.6886C11.6068 10.8614 11.5336 11.0342 11.414 11.1605C11.2877 11.2802 11.1149 11.3533 10.942 11.3533Z" fill="#008282"/>
</g>
<defs>
<clipPath id="clip0_936_3839">
<rect width="15.9535" height="15.9535" fill="white" transform="translate(0.306152 0.0529785)"/>
</clipPath>
</defs>
</svg>
