<svg width="25" height="24" viewBox="0 0 25 24" fill="none" xmlns="http://www.w3.org/2000/svg">
<path opacity="0.4" d="M12.5001 17.3501C13.4003 17.3501 14.1301 16.6203 14.1301 15.7201C14.1301 14.8199 13.4003 14.0901 12.5001 14.0901C11.5999 14.0901 10.8701 14.8199 10.8701 15.7201C10.8701 16.6203 11.5999 17.3501 12.5001 17.3501Z" fill="#008282"/>
<path d="M17.15 9.43994H7.85C3.75 9.43994 2.5 10.6899 2.5 14.7899V16.6499C2.5 20.7499 3.75 21.9999 7.85 21.9999H17.15C21.25 21.9999 22.5 20.7499 22.5 16.6499V14.7899C22.5 10.6899 21.25 9.43994 17.15 9.43994ZM12.5 18.7399C10.83 18.7399 9.48 17.3799 9.48 15.7199C9.48 14.0599 10.83 12.6999 12.5 12.6999C14.17 12.6999 15.52 14.0599 15.52 15.7199C15.52 17.3799 14.17 18.7399 12.5 18.7399Z" fill="#008282"/>
<path opacity="0.4" d="M7.61997 9.45V8.28C7.61997 5.35 8.44997 3.4 12.5 3.4C16.55 3.4 17.38 5.35 17.38 8.28V9.45C17.89 9.46 18.35 9.48 18.78 9.54V8.28C18.78 5.58 18.13 2 12.5 2C6.86997 2 6.21997 5.58 6.21997 8.28V9.53C6.63997 9.48 7.10997 9.45 7.61997 9.45Z" fill="#008282"/>
</svg>
