<svg width="17" height="17" viewBox="0 0 17 17" fill="none" xmlns="http://www.w3.org/2000/svg">
<path opacity="0.4" d="M6.78711 5.30913V11.6839C6.78711 13.8177 8.11657 15.1471 10.2437 15.1471H11.9653C14.0925 15.1471 15.4219 13.8177 15.4219 11.6905V5.30913C15.4286 3.182 14.0991 1.85254 11.972 1.85254H10.2437C8.11657 1.85254 6.78711 3.182 6.78711 5.30913Z" fill="#FF0000"/>
<path d="M9.0674 5.9208L11.2942 8.14765C11.487 8.34042 11.487 8.65949 11.2942 8.85226L9.0674 11.0791C8.87463 11.2719 8.55556 11.2719 8.36279 11.0791C8.27007 10.9853 8.21807 10.8587 8.21807 10.7268C8.21807 10.5949 8.27007 10.4683 8.36279 10.3745L9.73877 8.9985H2.63282C2.36029 8.9985 2.13428 8.77249 2.13428 8.49995C2.13428 8.22741 2.36029 8.00141 2.63282 8.00141H9.73877L8.36279 6.62542C8.31624 6.57934 8.27934 6.52446 8.25423 6.46397C8.22912 6.40349 8.21631 6.3386 8.21654 6.27311C8.21654 6.14681 8.26308 6.02051 8.36279 5.9208C8.55556 5.72139 8.86798 5.72139 9.0674 5.9208Z" fill="#FF0000"/>
</svg>
