<svg width="24" height="25" viewBox="0 0 24 25" fill="none" xmlns="http://www.w3.org/2000/svg">
<path opacity="0.4" d="M12 2.29102C9.38 2.29102 7.25 4.42102 7.25 7.04102C7.25 9.61102 9.26 11.691 11.88 11.781C11.96 11.771 12.04 11.771 12.1 11.781C12.12 11.781 12.13 11.781 12.15 11.781C12.16 11.781 12.16 11.781 12.17 11.781C14.73 11.691 16.74 9.61102 16.75 7.04102C16.75 4.42102 14.62 2.29102 12 2.29102Z" fill="#E5F3F3"/>
<path d="M17.08 14.4409C14.29 12.5809 9.73996 12.5809 6.92996 14.4409C5.65996 15.2909 4.95996 16.4409 4.95996 17.6709C4.95996 18.9009 5.65996 20.0409 6.91996 20.8809C8.31996 21.8209 10.16 22.2909 12 22.2909C13.84 22.2909 15.68 21.8209 17.08 20.8809C18.34 20.0309 19.04 18.8909 19.04 17.6509C19.03 16.4209 18.34 15.2809 17.08 14.4409Z" fill="#E5F3F3"/>
</svg>
