<svg width="32" height="32" viewBox="0 0 32 32" fill="none" xmlns="http://www.w3.org/2000/svg">
<path opacity="0.4" d="M2.40002 7.32002C2.40002 7.98669 2.93336 8.52002 3.60002 8.52002H9.80002C10.4667 8.52002 11 7.98669 11 7.32002C11 6.65335 10.4667 6.12002 9.80002 6.12002H3.60002C2.93336 6.12002 2.40002 6.65335 2.40002 7.32002Z" fill="white"/>
<path d="M21 16C21 16.6666 21.5333 17.2 22.2 17.2H28.4C29.0667 17.2 29.6 16.6666 29.6 16C29.6 15.3333 29.0667 14.8 28.4 14.8H22.2C21.5467 14.8 21 15.3333 21 16Z" fill="white"/>
<path opacity="0.4" d="M2.40002 24.6799C2.40002 25.3466 2.93336 25.8799 3.60002 25.8799H9.80002C10.4667 25.8799 11 25.3466 11 24.6799C11 24.0132 10.4667 23.4799 9.80002 23.4799H3.60002C2.93336 23.4799 2.40002 24.0266 2.40002 24.6799Z" fill="white"/>
<path opacity="0.4" d="M13.5601 22.2001V27.1601C13.5601 27.8268 14.0934 28.3601 14.7601 28.3601C15.4267 28.3601 15.9601 27.8268 15.9601 27.1601V25.8801H28.4001C29.0667 25.8801 29.6001 25.3468 29.6001 24.6801C29.6001 24.0134 29.0667 23.4801 28.4001 23.4801H15.9601V22.2001C15.9601 21.5334 15.4267 21.0001 14.7601 21.0001C14.0934 21.0001 13.5601 21.5468 13.5601 22.2001Z" fill="white"/>
<path opacity="0.4" d="M13.5601 4.84V9.8C13.5601 10.4667 14.0934 11 14.7601 11C15.4267 11 15.9601 10.4667 15.9601 9.8V8.52H28.4001C29.0667 8.52 29.6001 7.98667 29.6001 7.32C29.6001 6.65333 29.0667 6.12 28.4001 6.12L15.9601 6.12V4.84C15.9601 4.17333 15.4267 3.64 14.7601 3.64C14.0934 3.64 13.5601 4.17333 13.5601 4.84Z" fill="white"/>
<path d="M16.04 13.5199V14.7999H3.60002C2.93336 14.7999 2.40002 15.3333 2.40002 15.9999C2.40002 16.6666 2.93336 17.1999 3.60002 17.1999H16.04V18.4799C16.04 19.1466 16.5734 19.6799 17.24 19.6799C17.9067 19.6799 18.44 19.1466 18.44 18.4799V13.5199C18.44 12.8533 17.9067 12.3199 17.24 12.3199C16.5734 12.3199 16.04 12.8533 16.04 13.5199Z" fill="white"/>
</svg>
