<svg width="18" height="13" viewBox="0 0 18 13" fill="none" xmlns="http://www.w3.org/2000/svg">
<path d="M17.3901 12.3999C17.0234 12.3998 16.6611 12.3211 16.3274 12.1692C15.9834 12.0129 15.6101 11.9314 15.2323 11.9301C14.8536 11.9316 14.4796 12.0131 14.1346 12.1692C13.801 12.3211 13.4387 12.3997 13.0721 12.3997C12.7055 12.3997 12.3432 12.3211 12.0095 12.1692C11.6644 12.0139 11.2907 11.9325 10.9123 11.9301C10.5337 11.9319 10.1597 12.0133 9.81463 12.1692C9.48036 12.321 9.11745 12.3996 8.75029 12.3996C8.38313 12.3996 8.02022 12.321 7.68595 12.1692C7.34255 12.0133 6.97008 11.9319 6.59299 11.9301C6.2145 11.9319 5.84063 12.0133 5.49571 12.1692C5.16152 12.3211 4.79866 12.3997 4.43155 12.3997C4.06443 12.3997 3.70157 12.3211 3.36739 12.1692C3.02257 12.013 2.64863 11.9316 2.27011 11.9301C1.89294 11.9323 1.52044 12.0137 1.17679 12.1692C0.84162 12.3209 0.47801 12.3995 0.110107 12.3999V10.8174C0.477451 10.8153 0.840475 10.738 1.17679 10.5902C1.51951 10.4316 1.89245 10.3488 2.27011 10.3476C2.66107 10.3476 3.03583 10.4376 3.36739 10.5902C3.70181 10.738 4.06307 10.8153 4.42867 10.8174C4.79619 10.8158 5.15944 10.7385 5.49571 10.5902C5.83969 10.4311 6.21401 10.3484 6.59299 10.3476C6.98107 10.3476 7.35403 10.4376 7.68595 10.5902C8.02183 10.7381 8.38453 10.8154 8.75155 10.8174C9.11775 10.8154 9.47962 10.7381 9.81463 10.5902C10.1588 10.4312 10.5332 10.3484 10.9123 10.3476C11.2985 10.3476 11.6729 10.4376 12.0095 10.5902C12.3317 10.7317 12.6935 10.8174 13.0715 10.8174C13.4378 10.8157 13.7997 10.7384 14.1346 10.5902C14.4787 10.4309 14.8531 10.3481 15.2323 10.3476C15.6232 10.3476 15.9973 10.4376 16.3274 10.5902C16.6622 10.7383 17.024 10.8157 17.3901 10.8174V12.3999ZM14.8874 7.92295C16.0221 7.92295 16.943 7.00495 16.943 5.87887C16.943 4.75171 16.0221 3.83839 14.8874 3.83839C13.7509 3.83839 12.8311 4.75207 12.8311 5.87887C12.8311 7.00495 13.6691 7.92295 14.8874 7.92295ZM2.91487 9.07207C3.07435 9.10987 3.22483 9.16495 3.36775 9.22903C3.70154 9.37952 4.06324 9.45814 4.42939 9.45979C4.80739 9.45979 5.17423 9.37411 5.49607 9.22903C5.84058 9.07146 6.21452 8.98852 6.59335 8.98567C6.98143 8.98567 7.35511 9.07999 7.68631 9.22903C8.02145 9.37967 8.38447 9.45829 8.75191 9.45979C9.12631 9.45979 9.49279 9.37411 9.81463 9.22903C10.1593 9.07148 10.5333 8.98855 10.9123 8.98567C11.2989 8.98567 11.6737 9.07999 12.0095 9.22903C12.3321 9.37375 12.6935 9.45979 13.0723 9.45979C13.3477 9.45979 13.613 9.41335 13.8632 9.33523L10.4342 3.19507L14.4226 2.47255C15.008 2.36167 15.4328 1.90519 15.4328 1.32091C15.4328 0.676512 14.9047 0.159912 14.2585 0.159912L14.1253 0.163872L7.96423 1.27699C7.53187 1.37527 6.95911 2.00383 7.28527 2.77495L7.33783 2.89915L8.94559 5.78023L2.91487 9.07207Z" fill="#008282"/>
</svg>
